<?xml version="1.0" encoding="UTF-8" standalone="no"?>
<!-- Created with Inkscape (http://www.inkscape.org/) -->
<svg xmlns:dc="http://purl.org/dc/elements/1.1/" xmlns:cc="http://creativecommons.org/ns#" xmlns:rdf="http://www.w3.org/1999/02/22-rdf-syntax-ns#" xmlns:svg="http://www.w3.org/2000/svg" xmlns="http://www.w3.org/2000/svg" xmlns:sodipodi="http://sodipodi.sourceforge.net/DTD/sodipodi-0.dtd" xmlns:inkscape="http://www.inkscape.org/namespaces/inkscape" width="658.50671" height="1000.4609" id="svg3102" version="1.1" inkscape:version="0.48.1 " sodipodi:docname="New document 2">
  <defs id="defs3104">
    <inkscape:path-effect effect="skeletal" id="path-effect3182" is_visible="true" pattern="m 4.3921534,48.921534 c 0,-2.76 2.24,-5 5,-5 2.7599996,0 4.9999996,2.24 4.9999996,5 0,2.76 -2.24,5 -4.9999996,5 -2.76,0 -5,-2.24 -5,-5 z" copytype="single_stretched" prop_scale="1" scale_y_rel="false" spacing="0" normal_offset="0" tang_offset="0" prop_units="false" vertical_pattern="false" fuse_tolerance="0"/>
    <inkscape:path-effect effect="skeletal" id="path-effect3178" is_visible="true" pattern="M 0,5 C 0,2.24 2.24,0 5,0 7.76,0 10,2.24 10,5 10,7.76 7.76,10 5,10 2.24,10 0,7.76 0,5 z" copytype="single_stretched" prop_scale="1" scale_y_rel="false" spacing="0" normal_offset="0" tang_offset="0" prop_units="false" vertical_pattern="false" fuse_tolerance="0"/>
  </defs>
  <sodipodi:namedview inkscape:document-units="mm" pagecolor="#ffffff" bordercolor="#666666" borderopacity="1.0" inkscape:pageopacity="0.0" inkscape:pageshadow="2" inkscape:zoom="0.4553575" inkscape:cx="-181.30703" inkscape:cy="497.35949" inkscape:current-layer="g3190" id="namedview3106" showgrid="false" units="mm" fit-margin-top="2" fit-margin-left="2" fit-margin-right="2" fit-margin-bottom="2" inkscape:window-width="1366" inkscape:window-height="706" inkscape:window-x="-8" inkscape:window-y="-8" inkscape:window-maximized="1"/>
  <metadata id="metadata3108">
    <rdf:RDF>
      <cc:Work rdf:about="">
        <dc:format>image/svg+xml</dc:format>
        <dc:type rdf:resource="http://purl.org/dc/dcmitype/StillImage"/>
        <dc:title/>
      </cc:Work>
    </rdf:RDF>
  </metadata>
  <g inkscape:label="Layer 1" inkscape:groupmode="layer" id="layer1" transform="translate(-151.8707,265.12735)">
    <g id="g9" transform="translate(-515.33399,-70.205143)">
      <path d="m 1096.9705,-186.04501 c 3.1347,-2.68391 7.9334,-2.31752 10.6582,0.87643 2.6839,3.13466 2.3175,7.93338 -0.8764,10.65814 -0.1779,0.12251 -50.2625,42.40504 -90.4255,151.381294 -39.75584,108.171215 -5.7079,195.927496 -5.6038,196.205516 1.5157,3.85198 -0.4336,8.25484 -4.386,9.75345 -3.8923,1.4572 -8.23557,-0.53437 -9.69359,-4.42606 -0.16338,-0.23717 -36.24829,-93.234957 5.52359,-206.729283 41.4657,-112.671387 94.6257,-157.596957 94.8035,-157.719487 z" id="path3186" inkscape:connector-curvature="0" style="fill:#000000"/>
      <g id="g3190" transform="translate(1016.7835,8.784307)">
        <path style="fill:#000000" inkscape:connector-curvature="0" id="path37" d="m 277.66751,-75.78959 c 4.104,-0.432 7.848,2.592 8.28,6.768 0.432,4.104 -2.592,7.848 -6.768,8.28 -0.216,0 -65.448,6.408 -160.344,73.368 -94.104002,66.528 -115.8480017,158.112 -115.9200017,158.4 -0.937,4.032 -5.04,6.552 -9.145,5.544 -4.0320003,-1.008 -6.4790003,-5.112 -5.4720003,-9.144 0,-0.288 23.04,-97.344 121.824002,-167.11199956 98.065,-69.26400044 167.329,-76.10400044 167.545,-76.10400044 z"/>
        <path inkscape:connector-curvature="0" id="path47" d="m -266.5364,226.51151 c 0.27615,-7.39049 3.728,-12.86964 7.73215,-12.35996 4.00415,0.50969 6.97274,7.00823 6.69659,14.39871 -0.069,1.52907 -24.99141,546.13162 246.3241509,534.15393 C 265.53209,750.7265 228.32109,230.58902 228.25209,229.05995 c -0.4833,-7.39048 2.3473,-14.01644 6.3514,-14.9084 3.9351,-0.76453 7.5941,4.45978 8.0093,11.72285 0.138,1.65649 39.4201,550.84624 -248.0500991,563.58846 C -292.90855,802.07766 -266.60544,228.168 -266.5364,226.51151 z"/>
        <path inkscape:connector-curvature="0" id="path49" d="m -201.77664,398.13124 c 4.20462,-0.11903 7.48742,-3.57664 7.29669,-7.78786 -0.12564,-4.13292 -3.58324,-7.41573 -7.78786,-7.29669 l -123.5971,4.23891 5.71621,-62.08943 c 0.38285,-4.15841 -2.67667,-7.8384 -6.83508,-8.22124 -4.15842,-0.38284 -7.8384,2.67668 -8.22124,6.83509 l -6.5017,70.62135 -0.78548,8.5319 8.55923,-0.29657 132.15633,-4.53546 z"/>
        <path style="fill:#800000" inkscape:connector-curvature="0" id="path51" d="m -144.93659,332.41894 0,0 0,0 c 16.056,0 30.528,6.48 41.04,16.992 10.439997,10.44 16.991997,24.984 16.991997,41.04 l 0,0 0,0 0,0 0,0 c 0,16.056 -6.48,30.528 -16.991997,41.04 -10.512,10.44 -24.984,16.92 -41.04,16.92 v 0.072 l 0,0 0,0 v -15.192 l 0,0 0,0 v 0.072 c 11.808,0 22.536,-4.824 30.312,-12.6 7.776,-7.776 12.6,-18.504 12.6,-30.312 l 0,0 0,0 0,0 0,0 c 0,-11.88 -4.824,-22.536 -12.6,-30.312 -7.776,-7.848 -18.504,-12.6 -30.312,-12.6 l 0,0 0,0 0,0 v -15.12 l 0,0 z m 0,116.064 0,0 v -0.072 c -16.056,0 -30.528,-6.48 -41.04,-16.92 -10.512,-10.512 -16.992,-24.984 -16.992,-41.04 l 0,0 0,0 0,0 0,0 c 0,-16.056 6.48,-30.6 16.992,-41.04 10.512,-10.512 24.984,-16.992 41.04,-16.992 l 0,0 0,0 v 15.12 l 0,0 0,0 c -11.808,0 -22.536,4.752 -30.312,12.528 -7.776,7.776 -12.6,18.504 -12.6,30.384 l 0,0 0,0 0,0 0,0 c 0,11.808 4.824,22.536 12.6,30.312 7.776,7.776 18.504,12.6 30.312,12.6 v -0.072 l 0,0 v 15.192 z"/>
        <path style="fill-rule:evenodd" inkscape:connector-curvature="0" id="path53" d="m 124.85677,409.56717 c 5.976,0 10.872,-4.896 10.872,-10.872 0,-5.976 -4.896,-10.8 -10.872,-10.8 -5.976,0 -10.872,4.824 -10.872,10.8 0,5.976 4.896,10.872 10.872,10.872 z" clip-rule="evenodd"/>
        <path inkscape:connector-curvature="0" id="path55" d="m 107.09933,332.41894 0,0 0,0 c 16.056,0 30.6,6.48 41.04,16.992 10.512,10.44 16.992,24.984 16.992,41.04 l 0,0 0,0 0,0 0,0 c 0,16.056 -6.479,30.528 -16.992,41.04 -10.44,10.44 -24.984,16.92 -41.04,16.92 v 0.072 l 0,0 0,0 v -15.192 l 0,0 0,0 v 0.072 c 11.88,0 22.536,-4.824 30.312,-12.6 7.776,-7.776 12.6,-18.504 12.6,-30.312 l 0,0 0,0 0,0 0,0 c 0,-11.88 -4.824,-22.536 -12.6,-30.312 -7.776,-7.848 -18.504,-12.6 -30.312,-12.6 l 0,0 0,0 0,0 v -15.12 l 0,0 z m 0,116.064 0,0 v -0.072 c -16.055999,0 -30.527999,-6.48 -41.039999,-16.92 -10.44,-10.512 -16.92,-24.984 -16.92,-41.04 h -0.072 l 0,0 0,0 h 0.072 c 0,-16.056 6.48,-30.6 16.92,-41.04 10.512,-10.512 24.984,-16.992 41.039999,-16.992 l 0,0 0,0 v 15.12 l 0,0 0,0 c -11.807999,0 -22.535999,4.752 -30.311999,12.528 -7.776,7.776 -12.6,18.504 -12.6,30.384 h 0.072 l 0,0 0,0 h -0.072 c 0,11.808 4.824,22.536 12.6,30.312 7.776,7.776 18.504,12.6 30.311999,12.6 v -0.072 l 0,0 v 15.192 z" style="fill:#800000"/>
        <path style="fill-rule:evenodd" inkscape:connector-curvature="0" id="path57" d="m -126.00888,407.37109 c 5.976,0 10.872,-4.896 10.872,-10.872 0,-5.976 -4.896,-10.8 -10.872,-10.8 -5.976,0 -10.8,4.824 -10.8,10.8 0,5.976 4.824,10.872 10.8,10.872 z" clip-rule="evenodd"/>
        <path inkscape:connector-curvature="0" id="path59" d="m -137.58388,557.47531 c -1.75477,-4.75394 -0.84908,-11.06018 1.92458,-14.06777 2.77366,-2.91057 6.453,-1.45528 8.15116,3.29865 0.11321,0.29106 36.567037,103.32528 123.7958223,93.33232 C 83.459864,630.14257 100.38485,560.4829 100.44146,560.28886 c 1.30192,-5.14201 4.81145,-7.56749 7.86814,-5.23903 3.00008,2.23144 4.35861,8.24662 3.00008,13.38863 -0.0566,0.29105 -19.755256,81.20494 -114.2295237,91.97405 C -97.337503,671.18163 -137.47067,557.76636 -137.58388,557.47531 z"/>
        <path inkscape:connector-curvature="0" id="path61" d="m -23.639034,401.87699 c 0.162708,-4.17345 3.731466,-7.362 7.904916,-7.19929 4.169406,0.23459 7.3620041,3.73146 7.1274101,7.90087 l 0.04762,0.43536 -0.004,0.0719 c -0.436831,7.76372 -1.6945611,18.58214 -3.1971831,31.18964 -4.572579,38.97267 -11.198233,95.20927 0.815059,112.39928 3.3354521,4.80296 9.9013741,4.73972 21.237528,-3.204 3.45238,-2.40185 8.164518,-1.55981 10.566367,1.89257 2.405894,3.3805 1.559807,8.16452 -1.888528,10.49448 -20.2708279,14.21971 -33.696469,11.8778 -42.302421,-0.50521 -15.352789,-21.92108 -8.321374,-81.52421 -3.403705,-122.7851 1.426691,-12.53966 2.684421,-23.35808 3.072715,-30.25917 l 0.02427,-0.43132 z"/>
        <path d="m 161.12573,409.11162 c -4.20462,-0.11903 -7.48742,-3.57664 -7.29669,-7.78786 0.12564,-4.13292 3.58324,-7.41573 7.78786,-7.29669 l 123.5971,4.23891 -5.71621,-62.08943 c -0.38285,-4.15841 2.67667,-7.8384 6.83508,-8.22124 4.15842,-0.38284 7.8384,2.67668 8.22124,6.83509 l 6.5017,70.62135 0.78548,8.5319 -8.55923,-0.29657 -132.15633,-4.53546 z" id="path3174" inkscape:connector-curvature="0"/>
        <path sodipodi:nodetypes="ccc" inkscape:connector-curvature="0" inkscape:original-d="M -321.37124,226.04657 -9.5283446,175.53681 295.72632,226.04657" inkscape:path-effect="#path-effect3182" id="path3180" d="m -321.37124,226.04657 c -0.22065,-1.36225 34.1674,-8.19501 90.03015,-18.13631 55.86275,-9.9413 133.200203,-22.99113 218.603825,-36.788 1.073721,-0.17345 2.146169,-0.34662 3.2173195,-0.51949 84.6211425,13.97926 161.1130355,27.16386 216.3252655,37.19177 55.21222,10.0279 89.14487,16.8991 88.921,18.25203 -0.22387,1.35293 -34.52073,-3.06564 -89.73692,-11.31007 -55.2162,-8.24442 -131.351639,-20.3147 -215.5261437,-34.26565 -1.0656153,0.17323 -2.1325223,0.34658 -3.2006943,0.52004 -84.962284,13.79762 -161.941772,25.74278 -217.804492,33.89785 -55.86272,8.15508 -90.60866,12.52008 -90.82931,11.15783 z" style="fill:#000000;fill-rule:evenodd;stroke:none"/>
        <path d="m 184.05995,-149.11494 c 3.75322,-1.71546 8.26487,-0.04 10.00324,3.78148 1.71545,3.75322 0.04,8.26486 -3.78148,10.00323 -0.20477,0.0687 -60.00709,26.9008 -128.663588,120.576711 C -6.4250167,78.260833 2.1036603,172.00352 2.1270453,172.29946 c 0.394706,4.12059 -2.69315301,7.8152 -6.905533,8.16582 -4.143176,0.3274 -7.7688983,-2.78464 -8.0972423,-6.9275 -0.09164,-0.27303 -9.1329,-99.615687 62.315998,-197.190827 C 120.36791,-120.5216 183.85518,-149.04621 184.05995,-149.11494 z" id="path3184" inkscape:connector-curvature="0" style="fill:#000000"/>
        <path inkscape:connector-curvature="0" id="path3188" d="m -36.93702,761.21984 c -20.53793,-2.47175 -47.17296,-11.83946 -65.84678,-23.15875 -17.80683,-10.79378 -46.33728,-39.2319 -60.30402,-60.10888 -38.04036,-56.86136 -64.97026,-140.58501 -78.70079,-244.67657 -4.96548,-37.64351 -6.82432,-34.17881 18.33723,-34.17881 l 21.50529,0 2.50533,9.33333 c 8.26677,30.79685 48.19797,47.98326 78.56242,33.81332 19.4599,-9.0812 34.03919,-31.3237 34.03919,-51.93096 0,-20.13858 -14.99182,-43.07255 -33.91707,-51.88516 -30.7571,-14.32217 -69.71179,2.58075 -78.93143,34.2493 l -2.89661,9.94959 -21.9918,0.62262 -21.9918,0.62262 -1.2847,-8.30889 c -1.91455,-12.3825 -3.86701,-61.76486 -4.46532,-112.93841 l -0.53005,-45.33545 12.18092,-1.39264 c 6.6995,-0.76596 61.45257,-9.08671 121.67349,-18.49056 l 109.49257,-17.09792 114.50726,18.24082 c 62.97898,10.03244 116.73077,18.24828 119.44842,18.25742 l 4.94117,0.0166 -0.2063,68.6274 c -0.19668,65.42438 -1.80421,107.65182 -4.18586,109.95554 -0.60392,0.58417 -14.0907,0.52759 -29.97062,-0.12572 l -28.87257,-1.18785 -2.45983,-12.32101 c -3.24892,-16.27356 -10.19928,-28.09018 -21.66691,-36.83683 -39.38375,-30.039 -97.14018,1.8799 -92.082,50.88882 5.71815,55.40354 82.07822,71.37322 107.24984,22.42985 l 4.26619,-8.29513 31.21374,0.60886 31.21374,0.60886 -0.6733,8.78431 C 219.90762,463.20143 204.04518,539.9354 189.66817,582.27519 146.50514,709.38883 65.28954,773.52281 -36.93702,761.21984 l 0,0 z M 16.88937,656.18745 c 18.53021,-4.73923 38.22439,-14.0086 50.3849,-23.71445 21.60015,-17.24004 44.57895,-53.91043 43.14915,-68.85893 -1.25308,-13.10094 -6.58966,-10.27375 -14.68303,7.7787 -9.94118,22.17397 -28.07103,41.85206 -48.40248,52.53596 -27.27883,14.3346 -59.55694,19.90925 -83.42182,14.40751 -33.645,-7.75643 -66.82429,-38.5872 -86.2881,-80.18041 -7.21851,-15.42559 -10.06978,-18.46505 -12.99273,-13.85028 -5.38514,8.50211 2.84229,29.75934 22.55447,58.27402 19.46056,28.15069 47.51073,49.32711 73.37276,55.3926 14.72263,3.45294 38.83507003,2.68895 56.32688,-1.78472 l 0,0 z M 8.9063,560.74228 c 12.40158,-5.7746 15.5815,-10.47539 10.51409,-15.54279 -4.20096,-4.20097 -3.67678,-4.24443 -14.32472,1.18772 -10.9147,5.56829 -14.25442,4.47453 -18.81429,-6.16158 -4.78468,-11.16048 -4.29074,-53.70786 1.17947,-101.59942 4.0704,-35.63637 3.60442,-43.96429 -2.45574,-43.88791 -6.87467,0.0867 -8.10836,4.80583 -12.63933,48.34906 -7.80393,74.99651 -4.40471,108.77186 11.95075,118.74523 8.7225,5.3189 11.04661,5.21586 24.58977,-1.09031 l 0,0 z" style="fill:#d45500;fill-opacity:0.51851849;fill-rule:evenodd;stroke:#000000;stroke-width:0;stroke-linecap:round;stroke-linejoin:round;stroke-miterlimit:4;stroke-opacity:1;stroke-dasharray:none"/>
      </g>
    </g>
  </g>
</svg>